<?xml version="1.0" encoding="UTF-8" standalone="no"?>
<!-- Uploaded to: SVG Repo, www.svgrepo.com, Generator: SVG Repo Mixer Tools -->

<svg
   width="800px"
   height="800px"
   viewBox="0 0 24 24"
   version="1.1"
   id="svg12"
   sodipodi:docname="MainWindow.svg"
   inkscape:version="1.1 (c68e22c387, 2021-05-23)"
   xmlns:inkscape="http://www.inkscape.org/namespaces/inkscape"
   xmlns:sodipodi="http://sodipodi.sourceforge.net/DTD/sodipodi-0.dtd"
   xmlns="http://www.w3.org/2000/svg"
   xmlns:svg="http://www.w3.org/2000/svg">
  <defs
     id="defs16" />
  <sodipodi:namedview
     id="namedview14"
     pagecolor="#ffffff"
     bordercolor="#999999"
     borderopacity="1"
     inkscape:pageshadow="0"
     inkscape:pageopacity="0"
     inkscape:pagecheckerboard="0"
     showgrid="false"
     inkscape:zoom="0.545"
     inkscape:cx="348.62385"
     inkscape:cy="329.3578"
     inkscape:window-width="1920"
     inkscape:window-height="1057"
     inkscape:window-x="-8"
     inkscape:window-y="-8"
     inkscape:window-maximized="1"
     inkscape:current-layer="svg12" />
  <path
     d="M 11.682,10.54 H 11.6 v -4 h 4 v 2.187 a 7.868,7.868 0 0 0 -3.72,1.623 3.642,3.642 0 0 0 -0.198,0.19 z m 8.918,-9 h -4 v 4 h 4 z m 0,10.423 -0.055,0.002 a 13.903,13.903 0 0 0 -2.06,0.287 3.01,3.01 0 0 0 -0.744,0.288 l 0.009,0.076 a 2.686,2.686 0 0 0 0.267,0.312 l 2.206,2.612 H 20.6 Z M 8.466,17.187 A 4.766,4.766 0 0 1 8.016,16.54 H 6.6 v 4 h 4 V 18.45 A 2.986,2.986 0 0 1 8.466,17.187 Z M 1.6,5.54 h 4 v -4 h -4 z m 0,10 h 4 v -4 h -4 z"
     opacity="0.25"
     id="path2" />
  <path
     d="M 16.6,8.592 V 6.54 h 4 V 8.806 A 18.371,18.371 0 0 0 17.494,8.553 c -0.301,0 -0.6,0.015 -0.894,0.039 z M 1.6,20.54 h 4 v -4 h -4 z m 15,-1.335 v 1.335 h 0.92 Q 17.029,19.816 16.6,19.205 Z M 10.6,1.54 h -4 v 4 h 4 z"
     opacity="0.5"
     id="path4" />
  <path
     d="M 21.6,11.925 V 17.17 L 20.223,15.54 H 20.6 v -3.577 z m -8.142,4.106 a 2.952,2.952 0 0 1 -0.19,0.509 h 1.314 C 14.508,16.457 14.429,16.364 14.364,16.297 14.249,16.181 13.92,15.849 13.817,15.842 a 2.09,2.09 0 0 0 -0.359,0.19 z m 4.734,5.509 H 0.6 v -21 h 21 V 9.461 L 21.307,9.145 A 1,1 0 0 0 20.805,8.852 L 20.655,8.817 20.6,8.806 V 6.54 h -4 v 2.052 c -0.34,0.028 -0.673,0.076 -1,0.135 V 6.54 h -4 v 4 h 0.082 a 3.274,3.274 0 0 0 -1.005,1.928 l -0.051,0.038 c -0.01,0 -0.016,0.004 -0.026,0.004 v -0.97 h -4 v 4 h 1.036 a 3.013,3.013 0 0 0 0.38,1 H 6.6 v 4 h 4 v -2.09 c 0.029,0 0.057,0.011 0.085,0.011 A 1.951,1.951 0 0 0 11.6,18.236 v 2.304 h 4 v -2.724 c 0.298,0.4 0.633,0.866 1,1.389 v 1.335 h 0.92 c 0.215,0.317 0.44,0.651 0.672,1 z M 16.6,5.54 h 4 v -4 h -4 z m -5,0 h 4 v -4 h -4 z m -5,0 h 4 v -4 h -4 z m 0,5 h 4 v -4 h -4 z m -1,6 h -4 v 4 h 4 z m 0,-5 h -4 v 4 h 4 z m 0,-5 h -4 v 4 h 4 z m 0,-5 h -4 v 4 h 4 z m 17.575,20.99 -0.822,0.753 a 1.308,1.308 0 0 1 -0.882,0.343 1.383,1.383 0 0 1 -0.167,-0.01 1.307,1.307 0 0 1 -0.932,-0.585 74.561,74.561 0 0 0 -5.288,-7.428 c -0.454,-0.458 -0.79,-0.761 -1.27,-0.761 a 2.326,2.326 0 0 0 -1.262,0.603 2.36,2.36 0 0 1 -1.306,1.84 c -0.267,0.187 -0.997,0.493 -2.009,-0.734 -1.01,-1.23 -0.57,-1.888 -0.333,-2.114 a 2.358,2.358 0 0 1 2.06,-0.926 c 0.087,-0.073 0.175,-0.14 0.262,-0.204 0.394,-0.298 0.483,-0.395 0.453,-0.671 -0.075,-0.671 0.837,-1.513 0.846,-1.521 a 7.907,7.907 0 0 1 4.969,-1.562 17.494,17.494 0 0 1 2.932,0.237 l 0.148,0.036 1.02,1.098 -1.087,0.042 a 14.724,14.724 0 0 0 -2.246,0.312 4.385,4.385 0 0 0 -1.635,0.797 l 0.016,0.06 a 4.093,4.093 0 0 1 0.13,0.765 2.322,2.322 0 0 0 0.541,0.739 l 5.979,7.084 a 1.303,1.303 0 0 1 -0.117,1.808 z m -7.844,-8.063 a 5.606,5.606 0 0 1 0.837,-0.63 1.8,1.8 0 0 1 -0.393,-0.865 3.211,3.211 0 0 0 -0.103,-0.591 0.872,0.872 0 0 1 0.215,-0.996 5.678,5.678 0 0 1 1.374,-0.83 6.687,6.687 0 0 0 -4.08,1.315 2.255,2.255 0 0 0 -0.508,0.706 1.607,1.607 0 0 1 -0.845,1.529 c -0.091,0.068 -0.185,0.138 -0.274,0.216 a 0.781,0.781 0 0 1 -0.585,0.193 c -0.6,-0.05 -0.733,0.034 -1.374,0.646 a 1.479,1.479 0 0 0 0.414,0.756 1.587,1.587 0 0 0 0.674,0.547 c 0.711,-0.506 0.82,-0.62 0.886,-1.219 a 0.784,0.784 0 0 1 0.302,-0.537 3.354,3.354 0 0 1 1.943,-0.865 2.27,2.27 0 0 1 1.517,0.625 z m 7.197,6.9 -5.705,-6.762 a 5.388,5.388 0 0 0 -0.781,0.564 83.715,83.715 0 0 1 5.169,7.316 0.308,0.308 0 0 0 0.467,0.06 l 0.821,-0.752 a 0.306,0.306 0 0 0 0.029,-0.425 z"
     id="path6" />
  <path
     fill="none"
     d="m 0.6,0.54 h 24 v 24 h -24 z"
     id="path8" />
  <path
     fill="none"
     d="m 0.6,0.54 h 24 v 24 h -24 z"
     id="path10" />
</svg>
